<mxfile host="app.diagrams.net" modified="2023-11-26T13:42:50.295Z" agent="Mozilla/5.0 (Windows NT 10.0; Win64; x64) AppleWebKit/537.36 (KHTML, like Gecko) Chrome/119.0.0.0 Safari/537.36" etag="ghileAEgjHneVQxkQt5D" version="22.1.4" type="github">
  <diagram id="C5RBs43oDa-KdzZeNtuy" name="Page-1">
    <mxGraphModel dx="1066" dy="683" grid="1" gridSize="10" guides="1" tooltips="1" connect="1" arrows="1" fold="1" page="1" pageScale="1" pageWidth="827" pageHeight="1169" math="0" shadow="0">
      <root>
        <mxCell id="WIyWlLk6GJQsqaUBKTNV-0" />
        <mxCell id="WIyWlLk6GJQsqaUBKTNV-1" parent="WIyWlLk6GJQsqaUBKTNV-0" />
        <mxCell id="3f60OpF_epkhQgNOvx_9-8" value="Dicitonary" style="swimlane;fontStyle=1;align=center;verticalAlign=top;childLayout=stackLayout;horizontal=1;startSize=26;horizontalStack=0;resizeParent=1;resizeParentMax=0;resizeLast=0;collapsible=1;marginBottom=0;whiteSpace=wrap;html=1;" vertex="1" parent="WIyWlLk6GJQsqaUBKTNV-1">
          <mxGeometry x="100" y="60" width="160" height="86" as="geometry" />
        </mxCell>
        <mxCell id="3f60OpF_epkhQgNOvx_9-9" value="-&amp;nbsp;instance: Dictionary" style="text;strokeColor=none;fillColor=none;align=left;verticalAlign=top;spacingLeft=4;spacingRight=4;overflow=hidden;rotatable=0;points=[[0,0.5],[1,0.5]];portConstraint=eastwest;whiteSpace=wrap;html=1;" vertex="1" parent="3f60OpF_epkhQgNOvx_9-8">
          <mxGeometry y="26" width="160" height="26" as="geometry" />
        </mxCell>
        <mxCell id="3f60OpF_epkhQgNOvx_9-10" value="" style="line;strokeWidth=1;fillColor=none;align=left;verticalAlign=middle;spacingTop=-1;spacingLeft=3;spacingRight=3;rotatable=0;labelPosition=right;points=[];portConstraint=eastwest;strokeColor=inherit;" vertex="1" parent="3f60OpF_epkhQgNOvx_9-8">
          <mxGeometry y="52" width="160" height="8" as="geometry" />
        </mxCell>
        <mxCell id="3f60OpF_epkhQgNOvx_9-11" value="+ getInstance(): Dictionary" style="text;strokeColor=none;fillColor=none;align=left;verticalAlign=top;spacingLeft=4;spacingRight=4;overflow=hidden;rotatable=0;points=[[0,0.5],[1,0.5]];portConstraint=eastwest;whiteSpace=wrap;html=1;" vertex="1" parent="3f60OpF_epkhQgNOvx_9-8">
          <mxGeometry y="60" width="160" height="26" as="geometry" />
        </mxCell>
        <mxCell id="3f60OpF_epkhQgNOvx_9-12" value="DictionaryManagement" style="swimlane;fontStyle=1;align=center;verticalAlign=top;childLayout=stackLayout;horizontal=1;startSize=26;horizontalStack=0;resizeParent=1;resizeParentMax=0;resizeLast=0;collapsible=1;marginBottom=0;whiteSpace=wrap;html=1;" vertex="1" parent="WIyWlLk6GJQsqaUBKTNV-1">
          <mxGeometry x="300" y="60" width="240" height="346" as="geometry" />
        </mxCell>
        <mxCell id="3f60OpF_epkhQgNOvx_9-13" value="-&amp;nbsp;instance: DictionaryManagement&lt;br&gt;#&amp;nbsp;mp:&amp;nbsp;Map&amp;lt;String, Pair&amp;lt;String, Integer&amp;gt;&amp;gt;&lt;br&gt;- trie: Trie&lt;br&gt;- io:&amp;nbsp;IOdata_sql" style="text;strokeColor=none;fillColor=none;align=left;verticalAlign=top;spacingLeft=4;spacingRight=4;overflow=hidden;rotatable=0;points=[[0,0.5],[1,0.5]];portConstraint=eastwest;whiteSpace=wrap;html=1;" vertex="1" parent="3f60OpF_epkhQgNOvx_9-12">
          <mxGeometry y="26" width="240" height="74" as="geometry" />
        </mxCell>
        <mxCell id="3f60OpF_epkhQgNOvx_9-14" value="" style="line;strokeWidth=1;fillColor=none;align=left;verticalAlign=middle;spacingTop=-1;spacingLeft=3;spacingRight=3;rotatable=0;labelPosition=right;points=[];portConstraint=eastwest;strokeColor=inherit;" vertex="1" parent="3f60OpF_epkhQgNOvx_9-12">
          <mxGeometry y="100" width="240" height="8" as="geometry" />
        </mxCell>
        <mxCell id="3f60OpF_epkhQgNOvx_9-15" value="+ getInstance(): DictionaryManagement&lt;br&gt;+&amp;nbsp;dictionaryLookup(t: String): String&lt;br&gt;+ insertFromCommandline(dictionary:&amp;nbsp; &amp;nbsp; &amp;nbsp; &amp;nbsp; &amp;nbsp; &amp;nbsp; &amp;nbsp; &amp;nbsp; Dictionary): void&lt;br&gt;+&amp;nbsp;dictionaryAdd(dictionary: Dictionary, t:&amp;nbsp; &amp;nbsp; &amp;nbsp; &amp;nbsp; &amp;nbsp; &amp;nbsp; String, e: String): void&lt;br&gt;+&amp;nbsp;dictionaryUpdate_replace(dictionary:&amp;nbsp; &amp;nbsp; &amp;nbsp; &amp;nbsp; &amp;nbsp; &amp;nbsp; &amp;nbsp; Dictionary, t: String, e: String): void&lt;br&gt;+ dictionaryUpdate_add(dictionary:&amp;nbsp; &amp;nbsp; &amp;nbsp; &amp;nbsp; &amp;nbsp; &amp;nbsp; &amp;nbsp; &amp;nbsp; &amp;nbsp; &amp;nbsp; Dictionary, t: String, e: String): void&lt;br&gt;+&amp;nbsp;dictionaryRemove(dictionary:&amp;nbsp; &amp;nbsp; &amp;nbsp; &amp;nbsp; &amp;nbsp; &amp;nbsp; &amp;nbsp; &amp;nbsp; &amp;nbsp; &amp;nbsp; &amp;nbsp; &amp;nbsp; &amp;nbsp; Dictionary, t: String): void&lt;br&gt;+&amp;nbsp;addAllTrie(dictionary:Dictionary): void&lt;br&gt;+&amp;nbsp;dictionarySearcher(dictionary:Dictionary,&amp;nbsp; &amp;nbsp; &amp;nbsp; &amp;nbsp;t:String):&amp;nbsp;ObservableList&amp;lt;String&amp;gt;" style="text;strokeColor=none;fillColor=none;align=left;verticalAlign=top;spacingLeft=4;spacingRight=4;overflow=hidden;rotatable=0;points=[[0,0.5],[1,0.5]];portConstraint=eastwest;whiteSpace=wrap;html=1;" vertex="1" parent="3f60OpF_epkhQgNOvx_9-12">
          <mxGeometry y="108" width="240" height="238" as="geometry" />
        </mxCell>
        <mxCell id="3f60OpF_epkhQgNOvx_9-16" value="Word" style="swimlane;fontStyle=1;align=center;verticalAlign=top;childLayout=stackLayout;horizontal=1;startSize=26;horizontalStack=0;resizeParent=1;resizeParentMax=0;resizeLast=0;collapsible=1;marginBottom=0;whiteSpace=wrap;html=1;" vertex="1" parent="WIyWlLk6GJQsqaUBKTNV-1">
          <mxGeometry x="90" y="170" width="190" height="210" as="geometry" />
        </mxCell>
        <mxCell id="3f60OpF_epkhQgNOvx_9-17" value="-&amp;nbsp;word_target: String&lt;br&gt;-&amp;nbsp;word_texplain: String" style="text;strokeColor=none;fillColor=none;align=left;verticalAlign=top;spacingLeft=4;spacingRight=4;overflow=hidden;rotatable=0;points=[[0,0.5],[1,0.5]];portConstraint=eastwest;whiteSpace=wrap;html=1;" vertex="1" parent="3f60OpF_epkhQgNOvx_9-16">
          <mxGeometry y="26" width="190" height="44" as="geometry" />
        </mxCell>
        <mxCell id="3f60OpF_epkhQgNOvx_9-18" value="" style="line;strokeWidth=1;fillColor=none;align=left;verticalAlign=middle;spacingTop=-1;spacingLeft=3;spacingRight=3;rotatable=0;labelPosition=right;points=[];portConstraint=eastwest;strokeColor=inherit;" vertex="1" parent="3f60OpF_epkhQgNOvx_9-16">
          <mxGeometry y="70" width="190" height="8" as="geometry" />
        </mxCell>
        <mxCell id="3f60OpF_epkhQgNOvx_9-19" value="+&amp;nbsp;Word( word_target: String ,&amp;nbsp; &amp;nbsp; &amp;nbsp; &amp;nbsp; &amp;nbsp; &amp;nbsp;word_explain: String)&lt;br&gt;+&amp;nbsp;getWord_target(): String&lt;br&gt;+ setWord_target(word_target:&amp;nbsp; &amp;nbsp; &amp;nbsp; &amp;nbsp; &amp;nbsp;String): void&lt;br&gt;+&amp;nbsp;getWord_explain(): String&lt;br&gt;+&amp;nbsp;setWord_explain(word_explain:&amp;nbsp; &amp;nbsp; &amp;nbsp;String)" style="text;strokeColor=none;fillColor=none;align=left;verticalAlign=top;spacingLeft=4;spacingRight=4;overflow=hidden;rotatable=0;points=[[0,0.5],[1,0.5]];portConstraint=eastwest;whiteSpace=wrap;html=1;" vertex="1" parent="3f60OpF_epkhQgNOvx_9-16">
          <mxGeometry y="78" width="190" height="132" as="geometry" />
        </mxCell>
      </root>
    </mxGraphModel>
  </diagram>
</mxfile>
